<svg width="1440" height="384" viewBox="0 0 1440 384" fill="none" xmlns="http://www.w3.org/2000/svg">
<path d="M269.873 14.0421C506 -20.9999 776.522 20.866 939.979 27.3724C1103.44 33.8788 1138.78 62.5071 1235.09 89.8341C1331.39 117.161 1395.01 95.4729 1464.81 152.296C1534.61 209.118 1549.63 162.272 1547.87 251.193C1546.1 340.114 1444.49 380.454 1374.69 383.49C1304.89 386.526 1131.56 369.039 1022 366.003C912.439 362.966 780.31 372.075 678.701 366.003C577.092 359.93 411.253 363.708 319.363 376.287C227.473 388.866 55.5402 371.779 -18.6785 346.187C-92.8972 320.595 -110.983 338.577 -145.411 280.298C-179.839 222.019 -237.935 186.594 -164.777 127.172C-91.6177 67.7504 -70 89.8341 54.5 60.5001C179 31.1661 33.7458 49.0842 269.873 14.0421Z" fill="#F1E0B5"/>
</svg>
